<?xml version="1.0" encoding="UTF-8" standalone="no"?>
<!DOCTYPE svg PUBLIC "-//W3C//DTD SVG 1.1//EN" "http://www.w3.org/Graphics/SVG/1.1/DTD/svg11.dtd">
<!-- Created with Vectornator (http://vectornator.io/) -->
<svg height="100%" stroke-miterlimit="10" style="fill-rule:nonzero;clip-rule:evenodd;stroke-linecap:round;stroke-linejoin:round;" version="1.1" viewBox="0 0 1024 1024" width="100%" xml:space="preserve" xmlns="http://www.w3.org/2000/svg" xmlns:vectornator="http://vectornator.io" xmlns:xlink="http://www.w3.org/1999/xlink">
<defs/>
<clipPath id="ArtboardFrame">
<rect height="1024" width="1024" x="0" y="0"/>
</clipPath>
<g clip-path="url(#ArtboardFrame)" id="Layer-1" vectornator:layerName="Layer 1">
<g opacity="1" vectornator:layerName="Group 2">
<path d="M997.055 292.672L937.78 129.773C920.568 82.5128 868.134 58.0614 820.873 75.2488L687.649 123.753C685.56 108.829 681.878 93.9042 676.53 79.1542C666.232 50.8732 650.736 26.0243 631.509 5.20424C626.435-0.26761 618.226-1.58632 611.685 2.02059C594.173 11.7214 578.403 23.6113 564.573 37.2175C557.136 44.5298 558.628 56.917 567.484 62.4641C597.804 81.4179 623.698 107.859 642.056 140.344L476.544 200.589C453.661 208.921 435.378 225.661 425.081 247.749C414.808 269.812 413.713 294.587 422.046 317.471L481.345 480.37C483.957 487.558 486.842 494.572 490.001 501.388L438.438 530.665L218.056 423.632C196.614 413.21 174.924 437.412 187.61 457.585L287.379 616.355L35.9786 758.982L10.707 897.33C7.97045 912.279 22.5969 924.517 36.8496 919.194L67.1453 907.852C84.7065 901.285 99.2583 888.55 108.063 872.008L139.629 812.635L241.039 817.261L155.697 875.59L140.523 1002.05C138.783 1016.55 152.96 1027.79 166.666 1022.79L173.332 1020.38C193.058 1013.19 208.976 998.268 217.409 979.041L230.791 948.52L470.898 815.073C473.51 813.878 476.097 812.585 478.609 811.192L650.636 715.253C668.173 705.478 682.027 690.206 690.062 671.824L696.33 657.496C710.508 659.76 724.934 660.954 739.486 660.954C770.578 660.954 802.193 655.631 833.062 644.387C975.24 592.625 1048.82 434.85 997.055 292.672Z" fill="#ee2864" fill-rule="nonzero" opacity="1" stroke="none" vectornator:layerName="path"/>
<path d="M418.35 825.374L241.024 817.265L213.315 836.219L385.79 862.361L470.908 815.077C454.491 822.638 436.483 826.22 418.35 825.374Z" fill="#1f213c" fill-rule="nonzero" opacity="1" stroke="none" vectornator:layerName="path"/>
<path d="M489.927 501.313L438.016 530.465C475.002 568.97 522.761 594.665 574.299 605.759C538.829 579.169 509.453 543.773 489.927 501.313Z" fill="#1f213c" fill-rule="nonzero" opacity="1" stroke="none" vectornator:layerName="path"/>
<path d="M935.089 504.4C937.204 503.728 939.318 503.032 941.407 502.261L952.924 498.081C965.436 492.261 971.032 485.421 974.415 477.635C996.726 420.4 997.647 357.992 976.579 300.11L933.198 180.89L778.956 237.056C737.69 252.054 716.423 297.673 731.422 338.939L760.101 417.739C785.821 488.356 861.91 526.04 933.025 504.997C933.647 504.797 934.343 504.599 935.089 504.4Z" fill="#1f213c" fill-rule="nonzero" opacity="1" stroke="none" vectornator:layerName="path"/>
<path d="M852.229 256.71L795.045 277.529C786.463 280.638 778.951 286.484 774.598 294.494C769.599 303.696 768.827 314.318 772.384 324.044L801.039 402.843C806.859 418.788 816.585 432.568 828.922 443.239C840.539 453.288 858.671 445.851 859.89 430.529L872.576 272.207C873.472 261.162 862.627 252.929 852.229 256.71Z" fill="#ffffff" fill-rule="nonzero" opacity="1" stroke="none" vectornator:layerName="path"/>
</g>
</g>
</svg>
